<?xml version="1.0" encoding="utf-8"?>
<!-- Generator: Adobe Illustrator 17.0.0, SVG Export Plug-In . SVG Version: 6.00 Build 0)  -->
<!DOCTYPE svg PUBLIC "-//W3C//DTD SVG 1.1//EN" "http://www.w3.org/Graphics/SVG/1.1/DTD/svg11.dtd">
<svg version="1.1" id="图层_1" xmlns="http://www.w3.org/2000/svg" xmlns:xlink="http://www.w3.org/1999/xlink" x="0px" y="0px"
	 width="200px" height="200px" viewBox="0 0 200 200" enable-background="new 0 0 200 200" xml:space="preserve">
<path fill="#356DB8" d="M150.949,43.296c0,5.863,4.753,10.615,10.615,10.615c5.863,0,10.615-4.753,10.615-10.615
	c0.004-5.863-4.745-10.619-10.607-10.624c-5.863-0.004-10.619,4.745-10.624,10.607C150.949,43.285,150.949,43.291,150.949,43.296
	L150.949,43.296z"/>
<path fill="#356DB8" d="M170.668,100.664c-0.003,7.237,5.86,13.106,13.097,13.109c7.237,0.003,13.106-5.86,13.109-13.097
	c0-0.004,0-0.008,0-0.013c0.003-7.237-5.86-13.106-13.097-13.109c-7.237-0.003-13.106,5.86-13.109,13.097
	C170.668,100.656,170.668,100.66,170.668,100.664z"/>
<path fill="#356DB8" d="M146.637,158.319c-0.004,8.519,6.899,15.428,15.418,15.431s15.428-6.899,15.431-15.418
	c0-0.004,0-0.009,0-0.013c0.004-8.519-6.899-15.428-15.418-15.431c-8.519-0.004-15.428,6.899-15.431,15.418
	C146.637,158.311,146.637,158.315,146.637,158.319z"/>
<path fill="#356DB8" d="M86.591,181.375c-0.001,9.868,7.998,17.869,17.867,17.87c9.868,0.001,17.869-7.998,17.87-17.867
	c0-0.001,0-0.002,0-0.003c0.001-9.868-7.998-17.869-17.867-17.87c-9.868-0.001-17.869,7.998-17.87,17.867
	C86.591,181.373,86.591,181.374,86.591,181.375z"/>
<path fill="#356DB8" d="M27.711,157.413c0,10.992,8.911,19.903,19.903,19.903s19.903-8.911,19.903-19.903
	c0.002-10.992-8.906-19.905-19.899-19.907c-10.992-0.002-19.905,8.906-19.907,19.899C27.711,157.407,27.711,157.41,27.711,157.413z"
	/>
<path fill="#356DB8" d="M83.744,21.068c-0.004,11.634,9.423,21.069,21.057,21.073c11.634,0.004,21.069-9.423,21.073-21.057
	c0-0.005,0-0.011,0-0.016c0.004-11.634-9.423-21.069-21.057-21.073S83.748,9.418,83.744,21.052
	C83.744,21.058,83.744,21.063,83.744,21.068z"/>
<path fill="#356DB8" d="M26.548,43.793c0,11.634,9.431,21.065,21.065,21.065s21.065-9.431,21.065-21.065
	c0.001-11.634-9.43-21.066-21.064-21.067c-11.634-0.001-21.066,9.43-21.067,21.064C26.548,43.791,26.548,43.792,26.548,43.793z"/>
<path fill="#356DB8" d="M5.208,100.002c0,11.085,8.986,20.072,20.072,20.072s20.072-8.986,20.072-20.072S36.365,79.93,25.279,79.93
	S5.208,88.916,5.208,100.002z"/>
</svg>
